<?xml version="1.0" encoding="utf-8"?>
<!-- Generator: Adobe Illustrator 16.0.0, SVG Export Plug-In . SVG Version: 6.00 Build 0)  -->
<!DOCTYPE svg PUBLIC "-//W3C//DTD SVG 1.1//EN" "http://www.w3.org/Graphics/SVG/1.1/DTD/svg11.dtd">
<svg version="1.1" id="Capa_1" xmlns="http://www.w3.org/2000/svg" xmlns:xlink="http://www.w3.org/1999/xlink" x="0px" y="0px"
	 width="168.301px" height="103.09px" viewBox="0 0 168.301 103.09" enable-background="new 0 0 168.301 103.09"
	 xml:space="preserve">
<path fill="#F4981E" d="M63.342,40.313l-5.681,1.178c-0.484-2.667-2.426-3.844-4.572-3.844c-1.871,0-3.498,0.935-3.498,2.84
	c0,1.213,0.623,2.01,2.217,2.494l5.576,1.662c3.982,1.213,6.271,3.292,6.271,7.346c0,5.473-4.61,8.173-10.082,8.173
	c-5.475,0-10.115-2.735-10.775-7.896l5.961-1.214c0.591,2.913,2.459,4.159,5.125,4.159c2.459,0,3.881-1.109,3.881-2.91
	c0-1.351-0.727-2.147-2.563-2.668l-5.058-1.385c-3.396-0.971-6.65-2.807-6.65-7.344c0-5.093,3.948-8.107,9.629-8.107
	C58.527,32.795,62.371,35.532,63.342,40.313z M129.465,59.643h-5.543V43.465l-7.379,8.455h-2.184l-7.412-8.455v16.178h-5.543V33.315
	h3.635l10.395,11.917l10.393-11.917h3.639V59.643z M3.789,3.789H19.21V0H0v18.94h3.789V3.789z M19.21,99.302H3.789V84.15H0v18.939
	H19.21V99.302z M168.301,0H149.09v3.789h15.422V18.94h3.789V0z M168.301,84.15h-3.789v15.151H149.09v3.788h19.211V84.15z
	 M86.314,48.434h6.494v-3.788h-6.494V48.434z M71.974,48.434h6.494v-3.788h-6.494V48.434z M84.15,42.752v-6.494h-3.789v6.494H84.15z
	 M84.15,57.092v-6.494h-3.789v6.494H84.15z M68.296,72.016c0.567,0,1.136,0.053,1.685,0.186c0.547,0.135,1.13,0.35,1.761,0.666
	v1.828c-0.616-0.361-1.18-0.613-1.714-0.764c-0.518-0.168-1.071-0.25-1.643-0.25c-0.72,0-1.35,0.15-1.927,0.449
	c-0.573,0.299-1.039,0.699-1.346,1.252c-0.31,0.529-0.475,1.129-0.475,1.795c0,0.662,0.15,1.262,0.466,1.797
	c0.315,0.531,0.767,0.949,1.329,1.248c0.603,0.268,1.232,0.416,1.952,0.416c0.553,0,1.091-0.084,1.596-0.232
	c0.489-0.15,1.115-0.451,1.877-0.867v1.848c-0.646,0.332-1.248,0.564-1.795,0.717c-0.548,0.133-1.185,0.215-1.912,0.215
	c-1.058,0-2-0.215-2.848-0.631c-0.826-0.434-1.481-1.033-1.96-1.816c-0.467-0.813-0.719-1.678-0.719-2.613
	c0-1.031,0.252-1.93,0.742-2.729c0.49-0.813,1.175-1.43,2.02-1.861C66.253,72.236,67.224,72.016,68.296,72.016z M77.617,72.15
	v10.035H75.67V72.15H77.617z M83.484,72.15l5.983,7.008V72.15h1.898v10.035h-1.676l-6.012-7.123v7.123H81.78V72.15H83.484z
	 M101.975,72.15v1.514h-4.557v2.633h4.357v1.514h-4.357v2.861h4.645v1.514h-6.576V72.15H101.975z"/>
</svg>
